<svg xmlns="http://www.w3.org/2000/svg" width="26" height="26" fill="none"><path fill="#fff" d="M13.22 19.04a.605.605 0 0 1 .418.372c.02.094.044.193.018.29a.58.58 0 0 1-.563.476c-.075.001-.148-.018-.22-.035a.713.713 0 0 1-.328-.332c-.028-.125-.052-.258-.005-.38.082-.278.397-.47.68-.391Zm-2.3-.348c.225-.037.473.043.603.239.127.164.125.39.056.578a.753.753 0 0 1-.353.31c-.112.006-.227.018-.338-.006a.581.581 0 0 1-.393-.4c-.026-.158-.023-.335.077-.469a.656.656 0 0 1 .347-.252Zm4.163 0c.131-.01.27-.014.39.053.152.071.25.217.308.37.011.124.01.25-.028.37a.731.731 0 0 1-.343.326c-.114.015-.231.024-.345.006a.583.583 0 0 1-.41-.422c-.018-.14-.02-.294.058-.418a.65.65 0 0 1 .37-.285Zm1.836-.92c.131-.008.269-.019.388.047l.043.014c.127.09.225.214.275.362.004.115.02.236-.026.346a.625.625 0 0 1-.366.352.603.603 0 0 1-.698-.303l-.03-.09-.028-.151c.01-.062.02-.125.027-.187a.675.675 0 0 1 .415-.39Zm-7.78-.006c.238-.01.452.152.545.367.058.199.033.43-.113.587a.536.536 0 0 1-.464.187c-.231.004-.433-.165-.517-.373a1.073 1.073 0 0 1-.026-.273c.012-.042.023-.084.032-.126.09-.214.304-.38.542-.37Zm4.107-.972a.576.576 0 0 1 .403.417c.075.268-.084.562-.334.675a.726.726 0 0 1-.458-.004.657.657 0 0 1-.34-.422c-.025-.206.042-.427.209-.557.141-.124.342-.142.52-.11Zm-5.777-.482c.139-.006.289-.029.417.04.19.092.334.293.321.508.024.258-.17.497-.412.568a.576.576 0 0 1-.595-.929c.071-.086.17-.14.27-.186Zm11.008-.039a.554.554 0 0 1 .54.26c.09.13.085.3.066.451-.076.335-.492.536-.8.375-.285-.12-.409-.486-.285-.764.1-.171.269-.328.479-.322Zm-7.548-.042a.59.59 0 0 1 .444.337c.06.12.045.257.039.386-.076.224-.274.408-.515.426a.578.578 0 0 1-.621-.517v-.124c.021-.312.344-.56.653-.508Zm4.306-.033a.606.606 0 0 1 .524.167c.091.083.132.201.17.315a.617.617 0 0 1-.157.481c-.127.145-.326.201-.513.188-.215-.055-.408-.21-.465-.431-.085-.278.087-.578.346-.688.031-.01.063-.02.095-.032Zm-5.946-1.607c.096.04.198.077.276.15a.59.59 0 0 1 .18.514c-.044.31-.363.53-.67.488-.2-.053-.387-.191-.449-.396a.562.562 0 0 1 .152-.599c.073-.077.175-.113.27-.156.08 0 .16-.002.24-.001Zm7.423-.002c.135-.034.281-.05.413.003a.6.6 0 0 1 .35.376c.02.115.009.232.002.348-.08.181-.231.34-.43.38-.271.07-.551-.103-.667-.345a.99.99 0 0 1-.03-.342c.035-.083.066-.17.123-.242.062-.08.153-.129.24-.178Zm-10.227-.145c.334-.12.73.162.736.515a.568.568 0 0 1-.363.571c-.145.064-.31.042-.455-.007-.11-.071-.22-.156-.276-.278-.07-.134-.044-.292-.034-.436.077-.166.207-.32.392-.365Zm12.973-.031a.61.61 0 0 1 .48.278c.087.126.084.287.07.433-.023.163-.15.283-.273.378-.194.092-.435.095-.614-.032-.224-.148-.3-.45-.214-.697a.637.637 0 0 1 .55-.36Zm-7.555-.096c.272.006.49.236.548.492.008.184-.046.384-.19.507a.601.601 0 0 1-.573.13c-.221-.087-.4-.303-.394-.548a.63.63 0 0 1 .163-.417c.127-.099.28-.182.446-.164Zm2.35.005c.11.046.222.096.3.189.105.101.13.251.156.388-.025.21-.132.422-.333.511-.12.066-.266.05-.398.04-.242-.06-.441-.297-.427-.552a.56.56 0 0 1 .381-.548c.102-.042.214-.032.321-.028Zm-6.105-1.804c.171-.132.408-.133.603-.058.116.075.225.171.273.305.052.11.039.234.036.352-.054.143-.137.283-.273.36a.592.592 0 0 1-.73-.113c-.212-.24-.176-.66.09-.847Zm-2.059-.093a.79.79 0 0 1 .381.023c.128.07.235.173.303.303.046.15.051.31.002.46a.714.714 0 0 1-.37.33c-.194.029-.414.014-.556-.138-.193-.158-.216-.435-.143-.659.085-.146.214-.278.383-.32Zm4.625-.014a.56.56 0 0 1 .57.376c.055.126.04.266.007.396-.089.202-.284.375-.515.369a.557.557 0 0 1-.527-.275c-.1-.154-.098-.348-.043-.518.094-.192.286-.354.508-.348Zm4.26.064a.585.585 0 0 1 .68.1c.066.058.104.139.148.213.048.221.014.48-.175.626-.16.157-.406.167-.609.102-.19-.102-.35-.294-.339-.519-.02-.215.114-.417.295-.522Zm-1.969-.064c.356-.017.653.371.55.71a.581.581 0 0 1-.402.416.786.786 0 0 1-.394-.023.689.689 0 0 1-.285-.283l-.046-.115a.941.941 0 0 1 .03-.36c.1-.204.311-.364.547-.345Zm4.239.056c.151-.081.334-.064.494-.018.123.072.239.17.293.306.056.113.043.242.04.364-.06.163-.168.319-.333.388-.124.062-.265.043-.398.036-.084-.044-.176-.081-.245-.148-.067-.07-.107-.161-.152-.246-.007-.11-.02-.224.007-.334a.591.591 0 0 1 .294-.348Zm2.658-.043c.23.06.41.27.428.509a.582.582 0 0 1-.334.573c-.123.064-.266.042-.398.038-.093-.044-.19-.086-.262-.162-.08-.082-.116-.192-.159-.295-.023-.227.07-.475.273-.594.131-.09.3-.095.452-.07Zm-6.206-1.739c.152-.183.418-.22.636-.152a.629.629 0 0 1 .305.265c.067.15.063.316.037.474-.07.125-.156.25-.289.312a.578.578 0 0 1-.683-.118c-.067-.071-.105-.163-.146-.25-.018-.186 0-.392.14-.53Zm-1.642-.17a.663.663 0 0 1 .365.367c.026.112.047.231.006.343-.044.174-.182.304-.337.386-.153.043-.325.055-.47-.022a.572.572 0 0 1-.287-.716c.055-.169.201-.285.357-.357a1.75 1.75 0 0 1 .366 0Zm6.998-.087a.576.576 0 0 1 .75.082c.163.16.182.413.114.62-.103.19-.293.35-.518.34-.258.024-.498-.167-.572-.407-.023-.108-.012-.22-.006-.33a.736.736 0 0 1 .232-.305ZM6.735 10.31c.183.051.34.196.392.38a.575.575 0 0 1-.899.633c-.118-.08-.175-.217-.224-.345-.026-.225.06-.468.256-.592.136-.1.315-.103.475-.075Zm2.208-.065a.563.563 0 0 1 .584.161.629.629 0 0 1 .16.45.63.63 0 0 1-.334.46c-.112.061-.242.06-.365.055-.15-.056-.303-.135-.38-.282-.1-.159-.096-.36-.034-.531.085-.14.205-.27.369-.313Zm7.498.12c.14-.181.387-.244.606-.2.18.068.325.208.4.386.008.135.03.28-.028.407-.087.2-.296.356-.52.337-.257.027-.496-.168-.566-.408a.597.597 0 0 1 .108-.522ZM15.206 8.55a.58.58 0 0 1 .543.357c.1.244.014.553-.212.696-.166.12-.39.103-.577.047-.182-.106-.328-.299-.314-.518-.024-.308.257-.583.56-.582Zm-4.63-.019a.746.746 0 0 1 .354.02c.159.085.299.222.34.403.039.108.01.223-.012.332a.65.65 0 0 1-.225.284c-.093.068-.209.085-.319.105a3.32 3.32 0 0 0-.207-.035c-.207-.095-.38-.302-.374-.538a.575.575 0 0 1 .444-.57Zm-3.526.2a.58.58 0 0 1 .695-.16.573.573 0 0 1 .313.662.57.57 0 0 1-.407.414 1.12 1.12 0 0 1-.357-.006c-.141-.08-.28-.187-.332-.348-.041-.099-.038-.206-.035-.31.035-.087.065-.178.123-.252Zm11.365-.31c.317-.03.611.277.582.592a.57.57 0 0 1-.49.547c-.071.004-.143 0-.214-.001-.195-.068-.38-.215-.425-.425-.02-.145-.024-.304.057-.432a.535.535 0 0 1 .49-.28Zm-5.563-.433c.15-.017.314-.023.444.066.194.106.28.333.287.544-.035.104-.057.217-.132.301a.83.83 0 0 1-.23.186.946.946 0 0 1-.368.028.672.672 0 0 1-.4-.361.987.987 0 0 1-.025-.34c.066-.196.217-.376.424-.424Zm-3.776-.975c.034.01.068.018.103.027.228.075.408.298.394.544.024.305-.253.583-.555.582a.576.576 0 0 1-.577-.451c-.021-.146-.013-.304.073-.43.085-.155.254-.234.418-.274.048 0 .096 0 .144.002Zm7.707-.032a.606.606 0 0 1 .598.276c.099.148.08.336.056.504-.078.15-.197.29-.364.341a.578.578 0 0 1-.705-.298c-.068-.123-.05-.267-.046-.402a.664.664 0 0 1 .364-.39l.097-.03Zm-1.91-.923c.215-.02.45.058.573.244a.577.577 0 0 1-.646.883.633.633 0 0 1-.353-.308l-.011-.037c-.047-.174-.049-.377.063-.529.083-.133.23-.204.374-.253Zm-4.222.03a.587.587 0 0 1 .69.25.584.584 0 0 1-.14.754.649.649 0 0 1-.462.118.686.686 0 0 1-.411-.31c-.073-.187-.08-.413.038-.583.062-.11.177-.171.285-.23Zm2.205-.267c.102-.006.204.003.304.028.217.087.389.304.372.545.017.241-.151.463-.371.545l-.098.03a4.78 4.78 0 0 1-.206 0 .586.586 0 0 1-.463-.483c-.007-.08 0-.162.004-.243.068-.17.186-.327.365-.39.03-.01.062-.02.093-.032Z"/></svg>