<svg xmlns="http://www.w3.org/2000/svg" width="26" height="26" fill="none"><g fill="#fff" clip-path="url(#a)"><path d="M14.986 9.028a1.986 1.986 0 1 0-3.972 0V13a1.986 1.986 0 1 0 3.972 0V9.028ZM15.979 13a2.98 2.98 0 0 1-5.958 0V9.028a2.98 2.98 0 0 1 5.958 0V13ZM12.503 19.951V17.47a.497.497 0 0 1 .993 0v2.482a.497.497 0 0 1-.993 0Z"/><path d="M8.035 13a.497.497 0 0 1 .993 0 3.972 3.972 0 0 0 7.944 0 .497.497 0 0 1 .993 0 4.965 4.965 0 0 1-9.93 0Z"/></g><defs><clipPath id="a"><path fill="#fff" d="M5.055 5.055h15.89v15.89H5.054z"/></clipPath></defs></svg>