<svg width="26" height="26" viewBox="0 0 26 26" fill="none" xmlns="http://www.w3.org/2000/svg">
<path d="M19.2997 12.9999C19.2997 9.5205 16.4793 6.70009 12.9999 6.70009C9.52051 6.70009 6.7001 9.5205 6.7001 12.9999C6.7001 16.4793 9.52051 19.2997 12.9999 19.2997C16.4793 19.2997 19.2997 16.4793 19.2997 12.9999ZM20.2001 12.9999C20.2001 16.9763 16.9764 20.2001 12.9999 20.2001C9.02345 20.2001 5.79971 16.9763 5.79971 12.9999C5.79971 9.02344 9.02345 5.7997 12.9999 5.7997C16.9764 5.7997 20.2001 9.02344 20.2001 12.9999Z" fill="white"/>
<path d="M14.7997 12.9999C14.7997 12.0058 13.994 11.2001 12.9999 11.2001C12.0058 11.2001 11.2001 12.0058 11.2001 12.9999C11.2001 13.994 12.0058 14.7997 12.9999 14.7997C13.994 14.7997 14.7997 13.994 14.7997 12.9999ZM15.7001 12.9999C15.7001 14.4911 14.4911 15.7001 12.9999 15.7001C11.5087 15.7001 10.2997 14.4911 10.2997 12.9999C10.2997 11.5087 11.5087 10.2997 12.9999 10.2997C14.4911 10.2997 15.7001 11.5087 15.7001 12.9999Z" fill="white"/>
</svg>
